<svg width="96" height="96" viewBox="0 0 335 417" fill="none" xmlns="http://www.w3.org/2000/svg">
<path d="M211.4 416.2C194.6 416.2 179.8 413.267 167 407.4C154.2 401.533 144.333 393.4 137.4 383C130.467 372.333 127 360.067 127 346.2C127 334.467 129.4 323.8 134.2 314.2C139.267 304.6 145.933 297 154.2 291.4C162.733 285.8 172.067 283 182.2 283C191.533 283 199.4 285.4 205.8 290.2C212.2 294.733 216.2 301.133 217.8 309.4C203.933 309.4 192.867 313.133 184.6 320.6C176.333 327.8 172.2 337.667 172.2 350.2C172.2 361.667 175.667 370.867 182.6 377.8C189.533 384.733 198.733 388.2 210.2 388.2C224.333 388.2 235.933 383.533 245 374.2C254.333 364.6 259 352.6 259 338.2C259 325.667 255.533 313.8 248.6 302.6C241.667 291.4 231.267 277.8 217.4 261.8C203 245.267 192.867 243.533 185.4 231.8C185.4 231.8 173.8 201.7 173.8 173.4C173.8 184.051 177.667 153.933 185.4 143C193.133 131.8 203.8 123 217.4 116.6C231 110.2 246.333 107 263.4 107C285 107 302.2 112.067 315 122.2C328.067 132.333 334.6 145.933 334.6 163C334.6 174.2 331.8 183.267 326.2 190.2C320.6 197.133 313.267 200.6 304.2 200.6C294.067 200.6 285.933 196.467 279.8 188.2C284.867 184.467 288.867 179.533 291.8 173.4C294.733 167.267 296.2 160.867 296.2 154.2C296.2 145.667 293.667 138.867 288.6 133.8C283.533 128.733 276.6 126.2 267.8 126.2C257.133 126.2 248.333 130.067 241.4 137.8C234.733 145.267 231.4 154.867 231.4 166.6C231.4 177.267 234.467 187.267 240.6 196.6C246.733 205.667 256.333 217.4 269.4 231.8C280.067 243.267 288.6 253.133 295 261.4C301.667 269.667 307.267 279.267 311.8 290.2C316.6 300.867 319 312.467 319 325C319 342.067 314.2 357.533 304.6 371.4C295.267 385.267 282.333 396.2 265.8 404.2C249.533 412.2 231.4 416.2 211.4 416.2Z" fill="#7274E3"/>
<path d="M84.8 385.6C65.3333 385.6 49.6 380.533 37.6 370.4C25.8667 360.533 20 347.467 20 331.2C20 321.067 22.4 311.733 27.2 303.2C32 294.667 38.5333 288 46.8 283.2C55.0667 278.133 64.1333 275.6 74 275.6C84.1333 275.6 92.2667 278.133 98.4 283.2C104.8 288.267 108 294.933 108 303.2C108 309.6 106.533 314.667 103.6 318.4C101.2 315.2 97.8667 312.667 93.6 310.8C89.6 308.933 85.3333 308 80.8 308C72.8 308 66.2667 310.667 61.2 316C56.1333 321.333 53.6 328.267 53.6 336.8C53.6 345.333 56 352.267 60.8 357.6C65.8667 362.933 72.1333 365.6 79.6 365.6C88.9333 365.6 96.9333 361.467 103.6 353.2C110.267 344.933 115.333 332.667 118.8 316.4L138.8 228H137.2C130 238.133 121.2 245.867 110.8 251.2C100.667 256.533 89.4667 259.2 77.2 259.2C61.7333 259.2 48.1333 255.067 36.4 246.8C24.6667 238.533 15.6 226.8 9.2 211.6C3.06667 196.133 0 178.267 0 158C0 128.667 6.4 102 19.2 78C32 53.7333 49.6 34.6667 72 20.8C94.4 6.93334 119.067 7.62939e-06 146 7.62939e-06C168.667 7.62939e-06 186.533 4.93334 199.6 14.8C212.933 24.6667 219.6 38.1333 219.6 55.2C219.6 66.6667 216.8 75.8667 211.2 82.8C205.6 89.7333 198.267 93.2 189.2 93.2C184.133 93.2 179.333 92.1333 174.8 90C170.533 87.8667 166.933 84.8 164 80.8C168.8 77.6 172.8 72.5333 176 65.6C179.467 58.4 181.2 51.2 181.2 44C181.2 36 178.8 29.8667 174 25.6C169.467 21.0667 162.933 18.8 154.4 18.8C138.933 18.8 124 25.7333 109.6 39.6C95.2 53.2 83.6 71.0667 74.8 93.2C66 115.333 61.6 138.533 61.6 162.8C61.6 182.8 64.8 198.133 71.2 208.8C77.6 219.2 86.8 224.4 98.8 224.4C113.2 224.4 125.867 216.8 136.8 201.6C148 186.4 174.533 171.267 181.2 142.2L189.2 131.2L181.6 270C173.067 309.733 160.933 338.933 145.2 357.6C129.733 376.267 109.6 385.6 84.8 385.6Z" fill="#64CCC9"/>
</svg>
